<?xml version="1.0" encoding="UTF-8" standalone="no"?>
<svg
   xmlns:dc="http://purl.org/dc/elements/1.1/"
   xmlns:cc="http://creativecommons.org/ns#"
   xmlns:rdf="http://www.w3.org/1999/02/22-rdf-syntax-ns#"
   xmlns:svg="http://www.w3.org/2000/svg"
   xmlns="http://www.w3.org/2000/svg"
   xmlns:sodipodi="http://sodipodi.sourceforge.net/DTD/sodipodi-0.dtd"
   xmlns:inkscape="http://www.inkscape.org/namespaces/inkscape"
   sodipodi:docname="drawing.svg"
   inkscape:version="1.0 (4035a4fb49, 2020-05-01)"
   id="svg8"
   version="1.1"
   viewBox="0 0 210 297"
   height="297mm"
   width="210mm">
  <defs
     id="defs2" />
  <sodipodi:namedview
     inkscape:document-rotation="0"
     inkscape:window-maximized="1"
     inkscape:window-y="-8"
     inkscape:window-x="-8"
     inkscape:window-height="1017"
     inkscape:window-width="1920"
     showguides="true"
     showgrid="false"
     inkscape:current-layer="g4796"
     inkscape:document-units="mm"
     inkscape:cy="881.70788"
     inkscape:cx="472.65012"
     inkscape:zoom="0.26126761"
     inkscape:pageshadow="2"
     inkscape:pageopacity="0.0"
     borderopacity="1.0"
     bordercolor="#666666"
     pagecolor="#ffffff"
     id="base" />
  <metadata
     id="metadata5">
    <rdf:RDF>
      <cc:Work
         rdf:about="">
        <dc:format>image/svg+xml</dc:format>
        <dc:type
           rdf:resource="http://purl.org/dc/dcmitype/StillImage" />
        <dc:title />
      </cc:Work>
    </rdf:RDF>
  </metadata>
  <g
     id="layer1"
     inkscape:groupmode="layer"
     inkscape:label="Layer 1">
    <g
       transform="translate(-0.35804031,-29.359305)"
       id="g4796">
      <path
         sodipodi:nodetypes="csscccccccsscc"
         inkscape:connector-curvature="0"
         id="path4784"
         d="m -27.481798,-12.080585 c -35.302144,0.433177 -60.49182,33.249227 -69.33947,81.928235 -9.133052,50.24928 4.97056,77.2502 36.936394,84.7876 31.965727,7.53737 64.5028531,-26.5547 88.267875,-27.88278 12.786318,-2.51244 30.139319,6.70028 42.925639,9.21272 12.786274,2.51246 25.572994,1.67459 33.7928,-8.37525 8.21975,-10.04986 -5.561521,-13.3551 -3.73492,-24.24247 1.82664,-10.88733 11.42528,-13.379451 11.42528,-13.379451 0,0 9.76655,0.08698 18.82603,0.0079 l 1.51904,-39.516597 c -5.24852,0 -5.75847,-2.223997 13.66341,-18.541654 C 163.84364,17.598382 153.15307,3.8891557 127.04038,4.6699693 79.277617,6.0981868 87.5465,16.242171 62.887214,14.567181 28.889172,14.497283 2.0638571,-12.517118 -27.481798,-12.080585 Z"
         style="fill:#ffffff;stroke:#000000;stroke-width:0.91399425px;stroke-linecap:butt;stroke-linejoin:miter;stroke-opacity:1" />
      <rect
         style="fill:#000000;fill-opacity:0.98312234;stroke:none;stroke-width:9.47631073;stroke-linejoin:bevel;stroke-miterlimit:4;stroke-dasharray:none;stroke-opacity:1;paint-order:stroke fill markers"
         id="rect4786"
         width="222.1523"
         height="42"
         x="80.603363"
         y="48.830284" />
      <circle
         style="fill:#000000;fill-opacity:0.98312234;stroke:none;stroke-width:6.34263563;stroke-linejoin:bevel;stroke-miterlimit:4;stroke-dasharray:none;stroke-opacity:1;paint-order:stroke fill markers"
         id="path4788"
         cx="27.312925"
         cy="70.951965"
         r="28.102627" />
      <rect
         style="fill:#000000;fill-opacity:0.98312234;stroke:none;stroke-width:7.46341467;stroke-linejoin:bevel;stroke-miterlimit:4;stroke-dasharray:none;stroke-opacity:1;paint-order:stroke fill markers"
         id="rect4790"
         width="14.171498"
         height="58.103142"
         x="-66.727348"
         y="41.865993" />
      <ellipse
         ry="10.126909"
         rx="10.633254"
         cy="34.324562"
         cx="337.33093"
         id="path4809"
         style="fill:#000000;fill-opacity:0.98312234;stroke:none;stroke-width:2;stroke-linejoin:bevel;stroke-miterlimit:4;stroke-dasharray:none;stroke-opacity:1;paint-order:stroke fill markers" />
      <ellipse
         ry="10.126909"
         rx="10.633255"
         cy="45.0844"
         cx="364.16724"
         id="path4809-5"
         style="fill:#000000;fill-opacity:0.98312234;stroke:none;stroke-width:2;stroke-linejoin:bevel;stroke-miterlimit:4;stroke-dasharray:none;stroke-opacity:1;paint-order:stroke fill markers" />
      <ellipse
         ry="10.126909"
         rx="10.633255"
         cy="56.730347"
         cx="393.40872"
         id="path4809-4"
         style="fill:#000000;fill-opacity:0.98312234;stroke:none;stroke-width:2;stroke-linejoin:bevel;stroke-miterlimit:4;stroke-dasharray:none;stroke-opacity:1;paint-order:stroke fill markers" />
      <path
         sodipodi:nodetypes="ccccccscscccc"
         id="path4784-9"
         d="m 315.07278,39.211843 c -4.13258,0.09562 -4.92779,2.802844 -6.29111,6.098554 -1.72609,4.172658 -4.8106,4.099439 -6.02599,3.887417 V 90.23442 c 0.11594,0.0083 0.22778,0.01647 0.28991,0.02571 5.08976,0.753286 12.01052,10.86934 15.64608,12.37591 3.63551,1.50662 38.93857,-6.984068 43.30123,-6.984068 4.36261,0 11.40767,3.216035 14.30507,7.643138 2.73733,4.18247 21.62641,5.76587 28.17037,-6.287006 6.54394,-12.052864 -4.37708,-25.952213 -14.40222,-29.847095 0,0 -47.83749,-18.837312 -63.10675,-24.86374 -5.72595,-2.259909 -9.40705,-3.142793 -11.88659,-3.085415 z"
         style="fill:#ffffff;stroke:#000000;stroke-width:0.7734459px;stroke-linecap:butt;stroke-linejoin:miter;stroke-opacity:1"
         inkscape:connector-curvature="0" />
      <ellipse
         ry="10.126909"
         rx="10.633255"
         cy="110.65613"
         cx="342.01468"
         id="path4809-8"
         style="fill:#000000;fill-opacity:0.98312234;stroke:none;stroke-width:2;stroke-linejoin:bevel;stroke-miterlimit:4;stroke-dasharray:none;stroke-opacity:1;paint-order:stroke fill markers" />
      <circle
         r="4.5571094"
         cy="55.464485"
         cx="322.39374"
         id="path4809-49"
         style="fill:#000000;fill-opacity:0.98312234;stroke:none;stroke-width:0.87831008;stroke-linejoin:bevel;stroke-miterlimit:4;stroke-dasharray:none;stroke-opacity:1;paint-order:stroke fill markers" />
      <circle
         r="4.5571094"
         cy="63.56601"
         cx="348.21738"
         id="path4809-49-8"
         style="fill:#000000;fill-opacity:0.98312234;stroke:none;stroke-width:0.87831008;stroke-linejoin:bevel;stroke-miterlimit:4;stroke-dasharray:none;stroke-opacity:1;paint-order:stroke fill markers" />
      <circle
         r="4.5571094"
         cy="72.173889"
         cx="374.54733"
         id="path4809-49-5"
         style="fill:#000000;fill-opacity:0.98312234;stroke:none;stroke-width:0.87831008;stroke-linejoin:bevel;stroke-miterlimit:4;stroke-dasharray:none;stroke-opacity:1;paint-order:stroke fill markers" />
      <circle
         r="4.5571094"
         cy="89.389633"
         cx="327.45721"
         id="path4809-49-7"
         style="fill:#000000;fill-opacity:0.98312234;stroke:none;stroke-width:0.87831008;stroke-linejoin:bevel;stroke-miterlimit:4;stroke-dasharray:none;stroke-opacity:1;paint-order:stroke fill markers" />
      <circle
         inkscape:transform-center-y="-16.7094"
         inkscape:transform-center-x="-21.266509"
         r="3.0380731"
         cy="80.706314"
         cx="121.8239"
         id="path4809-49-0-1"
         style="fill:#ffffff;fill-opacity:0.98312234;stroke:none;stroke-width:0.58554012;stroke-linejoin:bevel;stroke-miterlimit:4;stroke-dasharray:none;stroke-opacity:1;paint-order:stroke fill markers" />
      <circle
         inkscape:transform-center-y="-16.7094"
         inkscape:transform-center-x="-21.266509"
         r="3.0380731"
         cy="58.248539"
         cx="122.27081"
         id="path4809-49-0-1-1"
         style="fill:#ffffff;fill-opacity:0.98312234;stroke:none;stroke-width:0.58554018;stroke-linejoin:bevel;stroke-miterlimit:4;stroke-dasharray:none;stroke-opacity:1;paint-order:stroke fill markers" />
      <rect
         y="47.266884"
         x="-61.045872"
         height="47.798382"
         width="2.3272619"
         id="rect4950"
         style="fill:#ffffff;fill-opacity:0.98312234;stroke:none;stroke-width:2;stroke-linejoin:bevel;stroke-miterlimit:4;stroke-dasharray:none;stroke-opacity:1;paint-order:stroke fill markers" />
      <path
         style="fill:#ffffff;stroke:#000000;stroke-width:0.913995px;stroke-linecap:butt;stroke-linejoin:miter;stroke-opacity:1"
         d="m -57.491582,176.85992 c -35.30214,0.43317 -60.491818,33.24922 -69.339468,81.92824 -9.13305,50.24927 4.97056,77.25019 36.936398,84.78759 31.96573,7.53737 64.50285,-26.5547 88.2678803,-27.88278 12.7863097,-2.51244 30.1393197,6.70028 42.9256397,9.21272 44.306275,9.22154 42.780432,-9.51452 42.780432,-9.51452 0,0 -16.869856,0.35727 -13.988426,-21.07782 1.82665,-10.88733 12.691144,-15.40483 12.691144,-15.40483 0,0 9.76656,0.087 18.826032,0.008 l 1.51905,-39.51659 c -5.248522,0 -8.543381,-12.85726 -4.058693,-18.92142 4.075743,-8.38645 25.976473,-13.2627 25.976473,-13.2627 1.76087,-4.56997 -10.63439,-14.12494 -28.014282,-13.60525 -47.762761,1.42818 -39.49387,11.5722 -64.15316,9.89721 -33.9980497,-0.0699 -60.82336,-27.0843 -90.36902,-26.64776 z"
         id="path4784-3"
         inkscape:connector-curvature="0"
         sodipodi:nodetypes="csscccccccccsccc" />
      <rect
         y="237.77078"
         x="50.593582"
         height="42"
         width="222.1523"
         id="rect4786-4"
         style="fill:#000000;fill-opacity:0.983122;stroke:none;stroke-width:9.47632;stroke-linejoin:bevel;stroke-miterlimit:4;stroke-dasharray:none;stroke-opacity:1;paint-order:stroke fill markers" />
      <circle
         r="28.102627"
         cy="259.89246"
         cx="-2.6968532"
         id="path4788-1"
         style="fill:#000000;fill-opacity:0.983122;stroke:none;stroke-width:6.34264;stroke-linejoin:bevel;stroke-miterlimit:4;stroke-dasharray:none;stroke-opacity:1;paint-order:stroke fill markers" />
      <rect
         y="230.80649"
         x="-96.737122"
         height="58.103142"
         width="14.171498"
         id="rect4790-6"
         style="fill:#000000;fill-opacity:0.983122;stroke:none;stroke-width:7.46342;stroke-linejoin:bevel;stroke-miterlimit:4;stroke-dasharray:none;stroke-opacity:1;paint-order:stroke fill markers" />
      <ellipse
         transform="rotate(-5.1584492)"
         style="fill:#000000;fill-opacity:0.983122;stroke:none;stroke-width:2;stroke-linejoin:bevel;stroke-miterlimit:4;stroke-dasharray:none;stroke-opacity:1;paint-order:stroke fill markers"
         id="path4809-89"
         cx="294.24905"
         cy="242.95322"
         rx="10.633255"
         ry="10.126909" />
      <ellipse
         transform="rotate(-5.1584492)"
         style="fill:#000000;fill-opacity:0.983122;stroke:none;stroke-width:2;stroke-linejoin:bevel;stroke-miterlimit:4;stroke-dasharray:none;stroke-opacity:1;paint-order:stroke fill markers"
         id="path4809-5-3"
         cx="321.08536"
         cy="253.71306"
         rx="10.633256"
         ry="10.126909" />
      <ellipse
         style="fill:#000000;fill-opacity:0.983122;stroke:none;stroke-width:2;stroke-linejoin:bevel;stroke-miterlimit:4;stroke-dasharray:none;stroke-opacity:1;paint-order:stroke fill markers"
         id="path4809-4-9"
         cx="353.77841"
         cy="291.24194"
         rx="10.633256"
         ry="10.126909" />
      <ellipse
         style="fill:#000000;fill-opacity:0.983122;stroke:none;stroke-width:2;stroke-linejoin:bevel;stroke-miterlimit:4;stroke-dasharray:none;stroke-opacity:1;paint-order:stroke fill markers"
         id="path4809-8-1"
         cx="326.18259"
         cy="297.57123"
         rx="10.633256"
         ry="10.126909" />
      <circle
         transform="rotate(-5.1584492)"
         r="4.5571094"
         style="fill:#000000;fill-opacity:0.983122;stroke:none;stroke-width:0.878311;stroke-linejoin:bevel;stroke-miterlimit:4;stroke-dasharray:none;stroke-opacity:1;paint-order:stroke fill markers"
         id="path4809-49-81"
         cx="279.3118"
         cy="264.09314" />
      <circle
         transform="rotate(-5.1584492)"
         r="4.5571094"
         style="fill:#000000;fill-opacity:0.983122;stroke:none;stroke-width:0.878311;stroke-linejoin:bevel;stroke-miterlimit:4;stroke-dasharray:none;stroke-opacity:1;paint-order:stroke fill markers"
         id="path4809-49-8-3"
         cx="305.13547"
         cy="272.19467" />
      <circle
         style="fill:#000000;fill-opacity:0.983122;stroke:none;stroke-width:0.878311;stroke-linejoin:bevel;stroke-miterlimit:4;stroke-dasharray:none;stroke-opacity:1;paint-order:stroke fill markers"
         id="path4809-49-5-9"
         cx="344.03122"
         cy="269.21591"
         r="4.5571094" />
      <circle
         style="fill:#000000;fill-opacity:0.983122;stroke:none;stroke-width:0.878311;stroke-linejoin:bevel;stroke-miterlimit:4;stroke-dasharray:none;stroke-opacity:1;paint-order:stroke fill markers"
         id="path4809-49-7-7"
         cx="314.66324"
         cy="276.30475"
         r="4.5571094" />
      <circle
         style="fill:#ffffff;fill-opacity:0.983122;stroke:none;stroke-width:0.585539;stroke-linejoin:bevel;stroke-miterlimit:4;stroke-dasharray:none;stroke-opacity:1;paint-order:stroke fill markers"
         id="path4809-49-0-1-2"
         cx="91.814102"
         cy="269.64682"
         r="3.0380731"
         inkscape:transform-center-x="-21.266509"
         inkscape:transform-center-y="-16.7094" />
      <circle
         style="fill:#ffffff;fill-opacity:0.983122;stroke:none;stroke-width:0.585539;stroke-linejoin:bevel;stroke-miterlimit:4;stroke-dasharray:none;stroke-opacity:1;paint-order:stroke fill markers"
         id="path4809-49-0-1-1-1"
         cx="92.261032"
         cy="247.18904"
         r="3.0380731"
         inkscape:transform-center-x="-21.266509"
         inkscape:transform-center-y="-16.7094" />
      <rect
         style="fill:#ffffff;fill-opacity:0.983122;stroke:none;stroke-width:2;stroke-linejoin:bevel;stroke-miterlimit:4;stroke-dasharray:none;stroke-opacity:1;paint-order:stroke fill markers"
         id="rect4950-0"
         width="2.3272619"
         height="47.798382"
         x="-91.055649"
         y="236.20738" />
      <path
         sodipodi:nodetypes="ccsccscccsc"
         id="path1845"
         d="m 263.8875,245.96147 -0.31248,27.49448 c 0,0 14.67967,7.91027 20.51897,12.92584 5.89603,5.06428 7.42822,8.63945 7.42822,8.63945 30.56453,-10.20691 60.77745,-20.05092 92.69908,-17.36514 4.34128,-9.70403 -10.47014,-16.84598 -10.47014,-22.98322 0,-7.40571 1.78758,-11.49163 1.78758,-11.49163 0,0 -22.75221,-4.26769 -37.69829,-7.67996 -19.4078,-4.10291 -52.41091,-13.49443 -52.41091,-13.49443 0,0 -2.57331,5.41188 -8.67091,12.33709 -6.43206,7.30509 -12.87112,11.61752 -12.87112,11.61752 z"
         style="fill:none;stroke:#000000;stroke-width:0.386744px;stroke-linecap:butt;stroke-linejoin:miter;stroke-opacity:1" />
    </g>
  </g>
</svg>
