  0
SECTION
  2
HEADER
  9
$ACADVER
  1
AC1014
  9
$HANDSEED
  5
FFFF
  9
$MEASUREMENT
 70
     1
  0
ENDSEC
  0
SECTION
  2
TABLES
  0
TABLE
  2
VPORT
  5
8
330
0
100
AcDbSymbolTable
 70
     4
  0
VPORT
  5
2E
330
8
100
AcDbSymbolTableRecord
100
AcDbViewportTableRecord
  2
*ACTIVE
 70
     0
 10
0.0
 20
0.0
 11
1.0
 21
1.0
 12
210.0
 22
148.5
 13
0.0
 23
0.0
 14
10.0
 24
10.0
 15
10.0
 25
10.0
 16
0.0
 26
0.0
 36
1.0
 17
0.0
 27
0.0
 37
0.0
 40
341.0
 41
1.24
 42
50.0
 43
0.0
 44
0.0
 50
0.0
 51
0.0
 71
     0
 72
   100
 73
     1
 74
     3
 75
     0
 76
     0
 77
     0
 78
     0
  0
ENDTAB
  0
TABLE
  2
LTYPE
  5
5
330
0
100
AcDbSymbolTable
 70
     1
  0
LTYPE
  5
14
330
5
100
AcDbSymbolTableRecord
100
AcDbLinetypeTableRecord
  2
BYBLOCK
 70
     0
  3

 72
    65
 73
     0
 40
0.0
  0
LTYPE
  5
15
330
5
100
AcDbSymbolTableRecord
100
AcDbLinetypeTableRecord
  2
BYLAYER
 70
     0
  3

 72
    65
 73
     0
 40
0.0
  0
LTYPE
  5
16
330
5
100
AcDbSymbolTableRecord
100
AcDbLinetypeTableRecord
  2
CONTINUOUS
 70
     0
  3
Solid line
 72
    65
 73
     0
 40
0.0
  0
ENDTAB
  0
TABLE
  2
LAYER
  5
2
100
AcDbSymbolTable
 70
2
  0
LAYER
  5
50
100
AcDbSymbolTableRecord
100
AcDbLayerTableRecord
  2
0
 70
0
  6
CONTINUOUS
  0
LAYER
  5
51
100
AcDbSymbolTableRecord
100
AcDbLayerTableRecord
  2
Layer_1
 70
0
  6
CONTINUOUS
  0
ENDTAB
  0
TABLE
  2
STYLE
  5
3
330
0
100
AcDbSymbolTable
 70
     1
  0
STYLE
  5
11
330
3
100
AcDbSymbolTableRecord
100
AcDbTextStyleTableRecord
  2
STANDARD
 70
     0
 40
0.0
 41
1.0
 50
0.0
 71
     0
 42
2.5
  3
txt
  4

  0
ENDTAB
  0
TABLE
  2
VIEW
  5
6
330
0
100
AcDbSymbolTable
 70
     0
  0
ENDTAB
  0
TABLE
  2
UCS
  5
7
330
0
100
AcDbSymbolTable
 70
     0
  0
ENDTAB
  0
TABLE
  2
APPID
  5
9
330
0
100
AcDbSymbolTable
 70
     2
  0
APPID
  5
12
330
9
100
AcDbSymbolTableRecord
100
AcDbRegAppTableRecord
  2
ACAD
 70
     0
  0
ENDTAB
  0
TABLE
  2
DIMSTYLE
  5
A
330
0
100
AcDbSymbolTable
 70
     1
  0
DIMSTYLE
105
27
330
A
100
AcDbSymbolTableRecord
100
AcDbDimStyleTableRecord
  2
ISO-25
 70
     0
  3

  4

  5

  6

  7

 40
1.0
 41
2.5
 42
0.625
 43
3.75
 44
1.25
 45
0.0
 46
0.0
 47
0.0
 48
0.0
140
2.5
141
2.5
142
0.0
143
0.03937007874016
144
1.0
145
0.0
146
1.0
147
0.625
 71
     0
 72
     0
 73
     0
 74
     0
 75
     0
 76
     0
 77
     1
 78
     8
170
     0
171
     3
172
     1
173
     0
174
     0
175
     0
176
     0
177
     0
178
     0
270
     2
271
     2
272
     2
273
     2
274
     3
340
11
275
     0
280
     0
281
     0
282
     0
283
     0
284
     8
285
     0
286
     0
287
     3
288
     0
  0
ENDTAB
  0
TABLE
  2
BLOCK_RECORD
  5
1
330
0
100
AcDbSymbolTable
 70
     1
  0
BLOCK_RECORD
  5
1F
330
1
100
AcDbSymbolTableRecord
100
AcDbBlockTableRecord
  2
*MODEL_SPACE
  0
BLOCK_RECORD
  5
1B
330
1
100
AcDbSymbolTableRecord
100
AcDbBlockTableRecord
  2
*PAPER_SPACE
  0
ENDTAB
  0
ENDSEC
  0
SECTION
  2
BLOCKS
  0
BLOCK
  5
20
330
1F
100
AcDbEntity
  8
0
100
AcDbBlockBegin
  2
*MODEL_SPACE
 70
     0
 10
0.0
 20
0.0
 30
0.0
  3
*MODEL_SPACE
  1

  0
ENDBLK
  5
21
330
1F
100
AcDbEntity
  8
0
100
AcDbBlockEnd
  0
BLOCK
  5
1C
330
1B
100
AcDbEntity
 67
     1
  8
0
100
AcDbBlockBegin
  2
*PAPER_SPACE
  1

  0
ENDBLK
  5
1D
330
1B
100
AcDbEntity
 67
     1
  8
0
100
AcDbBlockEnd
  0
ENDSEC
  0
SECTION
  2
ENTITIES
  0
LINE
  5
100
100
AcDbEntity
  8
Layer_1
 62
7
100
AcDbLine
 10
-121.708710
 20
81.263170
 30
0.0
 11
-124.988470
 21
81.128190
 31
0.0
  0
LINE
  5
101
100
AcDbEntity
  8
Layer_1
 62
7
100
AcDbLine
 10
-124.988470
 20
81.128190
 30
0.0
 11
-128.207840
 21
80.806500
 31
0.0
  0
LINE
  5
102
100
AcDbEntity
  8
Layer_1
 62
7
100
AcDbLine
 10
-128.207840
 20
80.806500
 30
0.0
 11
-131.365670
 21
80.301110
 31
0.0
  0
LINE
  5
103
100
AcDbEntity
  8
Layer_1
 62
7
100
AcDbLine
 10
-131.365670
 20
80.301110
 30
0.0
 11
-134.460830
 21
79.615050
 31
0.0
  0
LINE
  5
104
100
AcDbEntity
  8
Layer_1
 62
7
100
AcDbLine
 10
-134.460830
 20
79.615050
 30
0.0
 11
-137.492170
 21
78.751350
 31
0.0
  0
LINE
  5
105
100
AcDbEntity
  8
Layer_1
 62
7
100
AcDbLine
 10
-137.492170
 20
78.751350
 30
0.0
 11
-140.458560
 21
77.713030
 31
0.0
  0
LINE
  5
106
100
AcDbEntity
  8
Layer_1
 62
7
100
AcDbLine
 10
-140.458560
 20
77.713030
 30
0.0
 11
-143.358850
 21
76.503110
 31
0.0
  0
LINE
  5
107
100
AcDbEntity
  8
Layer_1
 62
7
100
AcDbLine
 10
-143.358850
 20
76.503110
 30
0.0
 11
-146.191900
 21
75.124620
 31
0.0
  0
LINE
  5
108
100
AcDbEntity
  8
Layer_1
 62
7
100
AcDbLine
 10
-146.191900
 20
75.124620
 30
0.0
 11
-148.956570
 21
73.580600
 31
0.0
  0
LINE
  5
109
100
AcDbEntity
  8
Layer_1
 62
7
100
AcDbLine
 10
-148.956570
 20
73.580600
 30
0.0
 11
-151.651730
 21
71.874050
 31
0.0
  0
LINE
  5
10a
100
AcDbEntity
  8
Layer_1
 62
7
100
AcDbLine
 10
-151.651730
 20
71.874050
 30
0.0
 11
-154.276220
 21
70.008000
 31
0.0
  0
LINE
  5
10b
100
AcDbEntity
  8
Layer_1
 62
7
100
AcDbLine
 10
-154.276220
 20
70.008000
 30
0.0
 11
-156.828920
 21
67.985490
 31
0.0
  0
LINE
  5
10c
100
AcDbEntity
  8
Layer_1
 62
7
100
AcDbLine
 10
-156.828920
 20
67.985490
 30
0.0
 11
-159.308670
 21
65.809530
 31
0.0
  0
LINE
  5
10d
100
AcDbEntity
  8
Layer_1
 62
7
100
AcDbLine
 10
-159.308670
 20
65.809530
 30
0.0
 11
-161.714340
 21
63.483160
 31
0.0
  0
LINE
  5
10e
100
AcDbEntity
  8
Layer_1
 62
7
100
AcDbLine
 10
-161.714340
 20
63.483160
 30
0.0
 11
-164.044790
 21
61.009380
 31
0.0
  0
LINE
  5
10f
100
AcDbEntity
  8
Layer_1
 62
7
100
AcDbLine
 10
-164.044790
 20
61.009380
 30
0.0
 11
-166.298880
 21
58.391240
 31
0.0
  0
LINE
  5
110
100
AcDbEntity
  8
Layer_1
 62
7
100
AcDbLine
 10
-166.298880
 20
58.391240
 30
0.0
 11
-170.573410
 21
52.733950
 31
0.0
  0
LINE
  5
111
100
AcDbEntity
  8
Layer_1
 62
7
100
AcDbLine
 10
-170.573410
 20
52.733950
 30
0.0
 11
-174.528800
 21
46.535470
 31
0.0
  0
LINE
  5
112
100
AcDbEntity
  8
Layer_1
 62
7
100
AcDbLine
 10
-174.528800
 20
46.535470
 30
0.0
 11
-178.155920
 21
39.820010
 31
0.0
  0
LINE
  5
113
100
AcDbEntity
  8
Layer_1
 62
7
100
AcDbLine
 10
-178.155920
 20
39.820010
 30
0.0
 11
-181.445650
 21
32.611760
 31
0.0
  0
LINE
  5
114
100
AcDbEntity
  8
Layer_1
 62
7
100
AcDbLine
 10
-181.445650
 20
32.611760
 30
0.0
 11
-184.388870
 21
24.934930
 31
0.0
  0
LINE
  5
115
100
AcDbEntity
  8
Layer_1
 62
7
100
AcDbLine
 10
-184.388870
 20
24.934930
 30
0.0
 11
-186.976450
 21
16.813720
 31
0.0
  0
LINE
  5
116
100
AcDbEntity
  8
Layer_1
 62
7
100
AcDbLine
 10
-186.976450
 20
16.813720
 30
0.0
 11
-189.199260
 21
8.272320
 31
0.0
  0
LINE
  5
117
100
AcDbEntity
  8
Layer_1
 62
7
100
AcDbLine
 10
-189.199260
 20
8.272320
 30
0.0
 11
-191.048180
 21
-0.665070
 31
0.0
  0
LINE
  5
118
100
AcDbEntity
  8
Layer_1
 62
7
100
AcDbLine
 10
-191.048180
 20
-0.665070
 30
0.0
 11
-192.489640
 21
-9.815290
 31
0.0
  0
LINE
  5
119
100
AcDbEntity
  8
Layer_1
 62
7
100
AcDbLine
 10
-192.489640
 20
-9.815290
 30
0.0
 11
-193.394360
 21
-18.426170
 31
0.0
  0
LINE
  5
11a
100
AcDbEntity
  8
Layer_1
 62
7
100
AcDbLine
 10
-193.394360
 20
-18.426170
 30
0.0
 11
-193.770210
 21
-26.503260
 31
0.0
  0
LINE
  5
11b
100
AcDbEntity
  8
Layer_1
 62
7
100
AcDbLine
 10
-193.770210
 20
-26.503260
 30
0.0
 11
-193.625070
 21
-34.052090
 31
0.0
  0
LINE
  5
11c
100
AcDbEntity
  8
Layer_1
 62
7
100
AcDbLine
 10
-193.625070
 20
-34.052090
 30
0.0
 11
-192.966820
 21
-41.078220
 31
0.0
  0
LINE
  5
11d
100
AcDbEntity
  8
Layer_1
 62
7
100
AcDbLine
 10
-192.966820
 20
-41.078220
 30
0.0
 11
-191.803320
 21
-47.587190
 31
0.0
  0
LINE
  5
11e
100
AcDbEntity
  8
Layer_1
 62
7
100
AcDbLine
 10
-191.803320
 20
-47.587190
 30
0.0
 11
-191.034560
 21
-50.649470
 31
0.0
  0
LINE
  5
11f
100
AcDbEntity
  8
Layer_1
 62
7
100
AcDbLine
 10
-191.034560
 20
-50.649470
 30
0.0
 11
-190.142440
 21
-53.584540
 31
0.0
  0
LINE
  5
120
100
AcDbEntity
  8
Layer_1
 62
7
100
AcDbLine
 10
-190.142440
 20
-53.584540
 30
0.0
 11
-189.127950
 21
-56.393090
 31
0.0
  0
LINE
  5
121
100
AcDbEntity
  8
Layer_1
 62
7
100
AcDbLine
 10
-189.127950
 20
-56.393090
 30
0.0
 11
-187.992070
 21
-59.075820
 31
0.0
  0
LINE
  5
122
100
AcDbEntity
  8
Layer_1
 62
7
100
AcDbLine
 10
-187.992070
 20
-59.075820
 30
0.0
 11
-186.735780
 21
-61.633410
 31
0.0
  0
LINE
  5
123
100
AcDbEntity
  8
Layer_1
 62
7
100
AcDbLine
 10
-186.735780
 20
-61.633410
 30
0.0
 11
-185.360070
 21
-64.066560
 31
0.0
  0
LINE
  5
124
100
AcDbEntity
  8
Layer_1
 62
7
100
AcDbLine
 10
-185.360070
 20
-64.066560
 30
0.0
 11
-183.865920
 21
-66.375970
 31
0.0
  0
LINE
  5
125
100
AcDbEntity
  8
Layer_1
 62
7
100
AcDbLine
 10
-183.865920
 20
-66.375970
 30
0.0
 11
-182.254310
 21
-68.562320
 31
0.0
  0
LINE
  5
126
100
AcDbEntity
  8
Layer_1
 62
7
100
AcDbLine
 10
-182.254310
 20
-68.562320
 30
0.0
 11
-180.526230
 21
-70.626310
 31
0.0
  0
LINE
  5
127
100
AcDbEntity
  8
Layer_1
 62
7
100
AcDbLine
 10
-180.526230
 20
-70.626310
 30
0.0
 11
-178.682670
 21
-72.568640
 31
0.0
  0
LINE
  5
128
100
AcDbEntity
  8
Layer_1
 62
7
100
AcDbLine
 10
-178.682670
 20
-72.568640
 30
0.0
 11
-176.724610
 21
-74.389990
 31
0.0
  0
LINE
  5
129
100
AcDbEntity
  8
Layer_1
 62
7
100
AcDbLine
 10
-176.724610
 20
-74.389990
 30
0.0
 11
-174.653020
 21
-76.091060
 31
0.0
  0
LINE
  5
12a
100
AcDbEntity
  8
Layer_1
 62
7
100
AcDbLine
 10
-174.653020
 20
-76.091060
 30
0.0
 11
-172.468900
 21
-77.672540
 31
0.0
  0
LINE
  5
12b
100
AcDbEntity
  8
Layer_1
 62
7
100
AcDbLine
 10
-172.468900
 20
-77.672540
 30
0.0
 11
-170.173240
 21
-79.135130
 31
0.0
  0
LINE
  5
12c
100
AcDbEntity
  8
Layer_1
 62
7
100
AcDbLine
 10
-170.173240
 20
-79.135130
 30
0.0
 11
-167.767000
 21
-80.479510
 31
0.0
  0
LINE
  5
12d
100
AcDbEntity
  8
Layer_1
 62
7
100
AcDbLine
 10
-167.767000
 20
-80.479510
 30
0.0
 11
-165.251190
 21
-81.706390
 31
0.0
  0
LINE
  5
12e
100
AcDbEntity
  8
Layer_1
 62
7
100
AcDbLine
 10
-165.251190
 20
-81.706390
 30
0.0
 11
-159.894750
 21
-83.810380
 31
0.0
  0
LINE
  5
12f
100
AcDbEntity
  8
Layer_1
 62
7
100
AcDbLine
 10
-159.894750
 20
-83.810380
 30
0.0
 11
-154.111790
 21
-85.452660
 31
0.0
  0
LINE
  5
130
100
AcDbEntity
  8
Layer_1
 62
7
100
AcDbLine
 10
-154.111790
 20
-85.452660
 30
0.0
 11
-151.113610
 21
-86.039600
 31
0.0
  0
LINE
  5
131
100
AcDbEntity
  8
Layer_1
 62
7
100
AcDbLine
 10
-151.113610
 20
-86.039600
 30
0.0
 11
-148.113800
 21
-86.396230
 31
0.0
  0
LINE
  5
132
100
AcDbEntity
  8
Layer_1
 62
7
100
AcDbLine
 10
-148.113800
 20
-86.396230
 30
0.0
 11
-145.114060
 21
-86.536190
 31
0.0
  0
LINE
  5
133
100
AcDbEntity
  8
Layer_1
 62
7
100
AcDbLine
 10
-145.114060
 20
-86.536190
 30
0.0
 11
-142.116110
 21
-86.473090
 31
0.0
  0
LINE
  5
134
100
AcDbEntity
  8
Layer_1
 62
7
100
AcDbLine
 10
-142.116110
 20
-86.473090
 30
0.0
 11
-139.121650
 21
-86.220560
 31
0.0
  0
LINE
  5
135
100
AcDbEntity
  8
Layer_1
 62
7
100
AcDbLine
 10
-139.121650
 20
-86.220560
 30
0.0
 11
-136.132390
 21
-85.792210
 31
0.0
  0
LINE
  5
136
100
AcDbEntity
  8
Layer_1
 62
7
100
AcDbLine
 10
-136.132390
 20
-85.792210
 30
0.0
 11
-133.150060
 21
-85.201670
 31
0.0
  0
LINE
  5
137
100
AcDbEntity
  8
Layer_1
 62
7
100
AcDbLine
 10
-133.150060
 20
-85.201670
 30
0.0
 11
-130.176350
 21
-84.462560
 31
0.0
  0
LINE
  5
138
100
AcDbEntity
  8
Layer_1
 62
7
100
AcDbLine
 10
-130.176350
 20
-84.462560
 30
0.0
 11
-124.261660
 21
-82.593130
 31
0.0
  0
LINE
  5
139
100
AcDbEntity
  8
Layer_1
 62
7
100
AcDbLine
 10
-124.261660
 20
-82.593130
 30
0.0
 11
-118.402010
 21
-80.292870
 31
0.0
  0
LINE
  5
13a
100
AcDbEntity
  8
Layer_1
 62
7
100
AcDbLine
 10
-118.402010
 20
-80.292870
 30
0.0
 11
-112.611090
 21
-77.670780
 31
0.0
  0
LINE
  5
13b
100
AcDbEntity
  8
Layer_1
 62
7
100
AcDbLine
 10
-112.611090
 20
-77.670780
 30
0.0
 11
-106.902590
 21
-74.835810
 31
0.0
  0
LINE
  5
13c
100
AcDbEntity
  8
Layer_1
 62
7
100
AcDbLine
 10
-106.902590
 20
-74.835810
 30
0.0
 11
-95.787570
 21
-68.963190
 31
0.0
  0
LINE
  5
13d
100
AcDbEntity
  8
Layer_1
 62
7
100
AcDbLine
 10
-95.787570
 20
-68.963190
 30
0.0
 11
-90.408432
 21
-66.143470
 31
0.0
  0
LINE
  5
13e
100
AcDbEntity
  8
Layer_1
 62
7
100
AcDbLine
 10
-90.408432
 20
-66.143470
 30
0.0
 11
-85.166455
 21
-63.546790
 31
0.0
  0
LINE
  5
13f
100
AcDbEntity
  8
Layer_1
 62
7
100
AcDbLine
 10
-85.166455
 20
-63.546790
 30
0.0
 11
-80.075328
 21
-61.282110
 31
0.0
  0
LINE
  5
140
100
AcDbEntity
  8
Layer_1
 62
7
100
AcDbLine
 10
-80.075328
 20
-61.282110
 30
0.0
 11
-75.148736
 21
-59.458420
 31
0.0
  0
LINE
  5
141
100
AcDbEntity
  8
Layer_1
 62
7
100
AcDbLine
 10
-75.148736
 20
-59.458420
 30
0.0
 11
-70.400367
 21
-58.184680
 31
0.0
  0
LINE
  5
142
100
AcDbEntity
  8
Layer_1
 62
7
100
AcDbLine
 10
-70.400367
 20
-58.184680
 30
0.0
 11
-68.097293
 21
-57.788100
 31
0.0
  0
LINE
  5
143
100
AcDbEntity
  8
Layer_1
 62
7
100
AcDbLine
 10
-68.097293
 20
-57.788100
 30
0.0
 11
-65.843906
 21
-57.569880
 31
0.0
  0
LINE
  5
144
100
AcDbEntity
  8
Layer_1
 62
7
100
AcDbLine
 10
-65.843906
 20
-57.569880
 30
0.0
 11
-63.395187
 21
-57.231700
 31
0.0
  0
LINE
  5
145
100
AcDbEntity
  8
Layer_1
 62
7
100
AcDbLine
 10
-63.395187
 20
-57.231700
 30
0.0
 11
-60.852815
 21
-57.141300
 31
0.0
  0
LINE
  5
146
100
AcDbEntity
  8
Layer_1
 62
7
100
AcDbLine
 10
-60.852815
 20
-57.141300
 30
0.0
 11
-58.230168
 21
-57.271770
 31
0.0
  0
LINE
  5
147
100
AcDbEntity
  8
Layer_1
 62
7
100
AcDbLine
 10
-58.230168
 20
-57.271770
 30
0.0
 11
-55.540627
 21
-57.596080
 31
0.0
  0
LINE
  5
148
100
AcDbEntity
  8
Layer_1
 62
7
100
AcDbLine
 10
-55.540627
 20
-57.596080
 30
0.0
 11
-50.014374
 21
-58.718240
 31
0.0
  0
LINE
  5
149
100
AcDbEntity
  8
Layer_1
 62
7
100
AcDbLine
 10
-50.014374
 20
-58.718240
 30
0.0
 11
-44.381090
 21
-60.291870
 31
0.0
  0
LINE
  5
14a
100
AcDbEntity
  8
Layer_1
 62
7
100
AcDbLine
 10
-44.381090
 20
-60.291870
 30
0.0
 11
-33.221551
 21
-63.929820
 31
0.0
  0
LINE
  5
14b
100
AcDbEntity
  8
Layer_1
 62
7
100
AcDbLine
 10
-33.221551
 20
-63.929820
 30
0.0
 11
-27.909361
 21
-65.562310
 31
0.0
  0
LINE
  5
14c
100
AcDbEntity
  8
Layer_1
 62
7
100
AcDbLine
 10
-27.909361
 20
-65.562310
 30
0.0
 11
-22.918266
 21
-66.782560
 31
0.0
  0
LINE
  5
14d
100
AcDbEntity
  8
Layer_1
 62
7
100
AcDbLine
 10
-22.918266
 20
-66.782560
 30
0.0
 11
-18.132314
 21
-67.556240
 31
0.0
  0
LINE
  5
14e
100
AcDbEntity
  8
Layer_1
 62
7
100
AcDbLine
 10
-18.132314
 20
-67.556240
 30
0.0
 11
-13.399844
 21
-67.947130
 31
0.0
  0
LINE
  5
14f
100
AcDbEntity
  8
Layer_1
 62
7
100
AcDbLine
 10
-13.399844
 20
-67.947130
 30
0.0
 11
-8.774380
 21
-67.886530
 31
0.0
  0
LINE
  5
150
100
AcDbEntity
  8
Layer_1
 62
7
100
AcDbLine
 10
-8.774380
 20
-67.886530
 30
0.0
 11
-4.309444
 21
-67.305780
 31
0.0
  0
LINE
  5
151
100
AcDbEntity
  8
Layer_1
 62
7
100
AcDbLine
 10
-4.309444
 20
-67.305780
 30
0.0
 11
-2.153901
 21
-66.798870
 31
0.0
  0
LINE
  5
152
100
AcDbEntity
  8
Layer_1
 62
7
100
AcDbLine
 10
-2.153901
 20
-66.798870
 30
0.0
 11
-0.058560
 21
-66.136170
 31
0.0
  0
LINE
  5
153
100
AcDbEntity
  8
Layer_1
 62
7
100
AcDbLine
 10
-0.058560
 20
-66.136170
 30
0.0
 11
1.969885
 21
-65.309080
 31
0.0
  0
LINE
  5
154
100
AcDbEntity
  8
Layer_1
 62
7
100
AcDbLine
 10
1.969885
 20
-65.309080
 30
0.0
 11
3.924746
 21
-64.309010
 31
0.0
  0
LINE
  5
155
100
AcDbEntity
  8
Layer_1
 62
7
100
AcDbLine
 10
3.924746
 20
-64.309010
 30
0.0
 11
5.799332
 21
-63.127390
 31
0.0
  0
LINE
  5
156
100
AcDbEntity
  8
Layer_1
 62
7
100
AcDbLine
 10
5.799332
 20
-63.127390
 30
0.0
 11
7.586952
 21
-61.755620
 31
0.0
  0
LINE
  5
157
100
AcDbEntity
  8
Layer_1
 62
7
100
AcDbLine
 10
7.586952
 20
-61.755620
 30
0.0
 11
9.280916
 21
-60.185110
 31
0.0
  0
LINE
  5
158
100
AcDbEntity
  8
Layer_1
 62
7
100
AcDbLine
 10
9.280916
 20
-60.185110
 30
0.0
 11
10.874534
 21
-58.407290
 31
0.0
  0
LINE
  5
159
100
AcDbEntity
  8
Layer_1
 62
7
100
AcDbLine
 10
10.874534
 20
-58.407290
 30
0.0
 11
12.167094
 21
-56.598480
 31
0.0
  0
LINE
  5
15a
100
AcDbEntity
  8
Layer_1
 62
7
100
AcDbLine
 10
12.167094
 20
-56.598480
 30
0.0
 11
12.999097
 21
-54.926760
 31
0.0
  0
LINE
  5
15b
100
AcDbEntity
  8
Layer_1
 62
7
100
AcDbLine
 10
12.999097
 20
-54.926760
 30
0.0
 11
13.425633
 21
-53.371150
 31
0.0
  0
LINE
  5
15c
100
AcDbEntity
  8
Layer_1
 62
7
100
AcDbLine
 10
13.425633
 20
-53.371150
 30
0.0
 11
13.501793
 21
-51.910660
 31
0.0
  0
LINE
  5
15d
100
AcDbEntity
  8
Layer_1
 62
7
100
AcDbLine
 10
13.501793
 20
-51.910660
 30
0.0
 11
13.282668
 21
-50.524290
 31
0.0
  0
LINE
  5
15e
100
AcDbEntity
  8
Layer_1
 62
7
100
AcDbLine
 10
13.282668
 20
-50.524290
 30
0.0
 11
12.823351
 21
-49.191070
 31
0.0
  0
LINE
  5
15f
100
AcDbEntity
  8
Layer_1
 62
7
100
AcDbLine
 10
12.823351
 20
-49.191070
 30
0.0
 11
11.404500
 21
-46.600120
 31
0.0
  0
LINE
  5
160
100
AcDbEntity
  8
Layer_1
 62
7
100
AcDbLine
 10
11.404500
 20
-46.600120
 30
0.0
 11
9.685971
 21
-43.969910
 31
0.0
  0
LINE
  5
161
100
AcDbEntity
  8
Layer_1
 62
7
100
AcDbLine
 10
9.685971
 20
-43.969910
 30
0.0
 11
8.108492
 21
-41.132550
 31
0.0
  0
LINE
  5
162
100
AcDbEntity
  8
Layer_1
 62
7
100
AcDbLine
 10
8.108492
 20
-41.132550
 30
0.0
 11
7.510375
 21
-39.583730
 31
0.0
  0
LINE
  5
163
100
AcDbEntity
  8
Layer_1
 62
7
100
AcDbLine
 10
7.510375
 20
-39.583730
 30
0.0
 11
7.112794
 21
-37.920150
 31
0.0
  0
LINE
  5
164
100
AcDbEntity
  8
Layer_1
 62
7
100
AcDbLine
 10
7.112794
 20
-37.920150
 30
0.0
 11
6.970840
 21
-36.120850
 31
0.0
  0
LINE
  5
165
100
AcDbEntity
  8
Layer_1
 62
7
100
AcDbLine
 10
6.970840
 20
-36.120850
 30
0.0
 11
7.139604
 21
-34.164820
 31
0.0
  0
LINE
  5
166
100
AcDbEntity
  8
Layer_1
 62
7
100
AcDbLine
 10
7.139604
 20
-34.164820
 30
0.0
 11
7.568938
 21
-32.220390
 31
0.0
  0
LINE
  5
167
100
AcDbEntity
  8
Layer_1
 62
7
100
AcDbLine
 10
7.568938
 20
-32.220390
 30
0.0
 11
8.154982
 21
-30.464070
 31
0.0
  0
LINE
  5
168
100
AcDbEntity
  8
Layer_1
 62
7
100
AcDbLine
 10
8.154982
 20
-30.464070
 30
0.0
 11
8.872292
 21
-28.887220
 31
0.0
  0
LINE
  5
169
100
AcDbEntity
  8
Layer_1
 62
7
100
AcDbLine
 10
8.872292
 20
-28.887220
 30
0.0
 11
9.695422
 21
-27.481190
 31
0.0
  0
LINE
  5
16a
100
AcDbEntity
  8
Layer_1
 62
7
100
AcDbLine
 10
9.695422
 20
-27.481190
 30
0.0
 11
11.557361
 21
-25.147010
 31
0.0
  0
LINE
  5
16b
100
AcDbEntity
  8
Layer_1
 62
7
100
AcDbLine
 10
11.557361
 20
-25.147010
 30
0.0
 11
13.537238
 21
-23.392350
 31
0.0
  0
LINE
  5
16c
100
AcDbEntity
  8
Layer_1
 62
7
100
AcDbLine
 10
13.537238
 20
-23.392350
 30
0.0
 11
15.431490
 21
-22.148030
 31
0.0
  0
LINE
  5
16d
100
AcDbEntity
  8
Layer_1
 62
7
100
AcDbLine
 10
15.431490
 20
-22.148030
 30
0.0
 11
17.036557
 21
-21.344880
 31
0.0
  0
LINE
  5
16e
100
AcDbEntity
  8
Layer_1
 62
7
100
AcDbLine
 10
17.036557
 20
-21.344880
 30
0.0
 11
18.564884
 21
-20.785370
 31
0.0
  0
LINE
  5
16f
100
AcDbEntity
  8
Layer_1
 62
7
100
AcDbLine
 10
18.564884
 20
-20.785370
 30
0.0
 11
21.435154
 21
-13.853170
 31
0.0
  0
LINE
  5
170
100
AcDbEntity
  8
Layer_1
 62
7
100
AcDbLine
 10
21.435154
 20
-13.853170
 30
0.0
 11
24.743714
 21
-6.426930
 31
0.0
  0
LINE
  5
171
100
AcDbEntity
  8
Layer_1
 62
7
100
AcDbLine
 10
24.743714
 20
-6.426930
 30
0.0
 11
29.052978
 21
2.538030
 31
0.0
  0
LINE
  5
172
100
AcDbEntity
  8
Layer_1
 62
7
100
AcDbLine
 10
29.052978
 20
2.538030
 30
0.0
 11
34.176760
 21
12.215710
 31
0.0
  0
LINE
  5
173
100
AcDbEntity
  8
Layer_1
 62
7
100
AcDbLine
 10
34.176760
 20
12.215710
 30
0.0
 11
36.985912
 21
17.063680
 31
0.0
  0
LINE
  5
174
100
AcDbEntity
  8
Layer_1
 62
7
100
AcDbLine
 10
36.985912
 20
17.063680
 30
0.0
 11
39.928879
 21
21.780090
 31
0.0
  0
LINE
  5
175
100
AcDbEntity
  8
Layer_1
 62
7
100
AcDbLine
 10
39.928879
 20
21.780090
 30
0.0
 11
42.982379
 21
26.261660
 31
0.0
  0
LINE
  5
176
100
AcDbEntity
  8
Layer_1
 62
7
100
AcDbLine
 10
42.982379
 20
26.261660
 30
0.0
 11
46.123139
 21
30.405150
 31
0.0
  0
LINE
  5
177
100
AcDbEntity
  8
Layer_1
 62
7
100
AcDbLine
 10
46.123139
 20
30.405150
 30
0.0
 11
49.327889
 21
34.107300
 31
0.0
  0
LINE
  5
178
100
AcDbEntity
  8
Layer_1
 62
7
100
AcDbLine
 10
49.327889
 20
34.107300
 30
0.0
 11
52.573369
 21
37.264880
 31
0.0
  0
LINE
  5
179
100
AcDbEntity
  8
Layer_1
 62
7
100
AcDbLine
 10
52.573369
 20
37.264880
 30
0.0
 11
55.446989
 21
39.939210
 31
0.0
  0
LINE
  5
17a
100
AcDbEntity
  8
Layer_1
 62
7
100
AcDbLine
 10
55.446989
 20
39.939210
 30
0.0
 11
57.688639
 21
42.578910
 31
0.0
  0
LINE
  5
17b
100
AcDbEntity
  8
Layer_1
 62
7
100
AcDbLine
 10
57.688639
 20
42.578910
 30
0.0
 11
59.316349
 21
45.163640
 31
0.0
  0
LINE
  5
17c
100
AcDbEntity
  8
Layer_1
 62
7
100
AcDbLine
 10
59.316349
 20
45.163640
 30
0.0
 11
60.348149
 21
47.673090
 31
0.0
  0
LINE
  5
17d
100
AcDbEntity
  8
Layer_1
 62
7
100
AcDbLine
 10
60.348149
 20
47.673090
 30
0.0
 11
60.802069
 21
50.086900
 31
0.0
  0
LINE
  5
17e
100
AcDbEntity
  8
Layer_1
 62
7
100
AcDbLine
 10
60.802069
 20
50.086900
 30
0.0
 11
60.696149
 21
52.384760
 31
0.0
  0
LINE
  5
17f
100
AcDbEntity
  8
Layer_1
 62
7
100
AcDbLine
 10
60.696149
 20
52.384760
 30
0.0
 11
60.048429
 21
54.546330
 31
0.0
  0
LINE
  5
180
100
AcDbEntity
  8
Layer_1
 62
7
100
AcDbLine
 10
60.048429
 20
54.546330
 30
0.0
 11
58.876939
 21
56.551270
 31
0.0
  0
LINE
  5
181
100
AcDbEntity
  8
Layer_1
 62
7
100
AcDbLine
 10
58.876939
 20
56.551270
 30
0.0
 11
57.199709
 21
58.379270
 31
0.0
  0
LINE
  5
182
100
AcDbEntity
  8
Layer_1
 62
7
100
AcDbLine
 10
57.199709
 20
58.379270
 30
0.0
 11
55.034779
 21
60.009970
 31
0.0
  0
LINE
  5
183
100
AcDbEntity
  8
Layer_1
 62
7
100
AcDbLine
 10
55.034779
 20
60.009970
 30
0.0
 11
52.400189
 21
61.423060
 31
0.0
  0
LINE
  5
184
100
AcDbEntity
  8
Layer_1
 62
7
100
AcDbLine
 10
52.400189
 20
61.423060
 30
0.0
 11
49.313969
 21
62.598190
 31
0.0
  0
LINE
  5
185
100
AcDbEntity
  8
Layer_1
 62
7
100
AcDbLine
 10
49.313969
 20
62.598190
 30
0.0
 11
45.794149
 21
63.515040
 31
0.0
  0
LINE
  5
186
100
AcDbEntity
  8
Layer_1
 62
7
100
AcDbLine
 10
45.794149
 20
63.515040
 30
0.0
 11
41.858769
 21
64.153280
 31
0.0
  0
LINE
  5
187
100
AcDbEntity
  8
Layer_1
 62
7
100
AcDbLine
 10
41.858769
 20
64.153280
 30
0.0
 11
37.525861
 21
64.492570
 31
0.0
  0
LINE
  5
188
100
AcDbEntity
  8
Layer_1
 62
7
100
AcDbLine
 10
37.525861
 20
64.492570
 30
0.0
 11
32.813464
 21
64.512570
 31
0.0
  0
LINE
  5
189
100
AcDbEntity
  8
Layer_1
 62
7
100
AcDbLine
 10
32.813464
 20
64.512570
 30
0.0
 11
24.492849
 21
64.147650
 31
0.0
  0
LINE
  5
18a
100
AcDbEntity
  8
Layer_1
 62
7
100
AcDbLine
 10
24.492849
 20
64.147650
 30
0.0
 11
17.355163
 21
63.608540
 31
0.0
  0
LINE
  5
18b
100
AcDbEntity
  8
Layer_1
 62
7
100
AcDbLine
 10
17.355163
 20
63.608540
 30
0.0
 11
11.270095
 21
62.925320
 31
0.0
  0
LINE
  5
18c
100
AcDbEntity
  8
Layer_1
 62
7
100
AcDbLine
 10
11.270095
 20
62.925320
 30
0.0
 11
6.107331
 21
62.128050
 31
0.0
  0
LINE
  5
18d
100
AcDbEntity
  8
Layer_1
 62
7
100
AcDbLine
 10
6.107331
 20
62.128050
 30
0.0
 11
1.736560
 21
61.246840
 31
0.0
  0
LINE
  5
18e
100
AcDbEntity
  8
Layer_1
 62
7
100
AcDbLine
 10
1.736560
 20
61.246840
 30
0.0
 11
-1.972531
 21
60.311750
 31
0.0
  0
LINE
  5
18f
100
AcDbEntity
  8
Layer_1
 62
7
100
AcDbLine
 10
-1.972531
 20
60.311750
 30
0.0
 11
-7.926918
 21
58.400260
 31
0.0
  0
LINE
  5
190
100
AcDbEntity
  8
Layer_1
 62
7
100
AcDbLine
 10
-7.926918
 20
58.400260
 30
0.0
 11
-12.798330
 21
56.634240
 31
0.0
  0
LINE
  5
191
100
AcDbEntity
  8
Layer_1
 62
7
100
AcDbLine
 10
-12.798330
 20
56.634240
 30
0.0
 11
-15.153701
 21
55.880970
 31
0.0
  0
LINE
  5
192
100
AcDbEntity
  8
Layer_1
 62
7
100
AcDbLine
 10
-15.153701
 20
55.880970
 30
0.0
 11
-17.629265
 21
55.254320
 31
0.0
  0
LINE
  5
193
100
AcDbEntity
  8
Layer_1
 62
7
100
AcDbLine
 10
-17.629265
 20
55.254320
 30
0.0
 11
-20.355334
 21
54.784350
 31
0.0
  0
LINE
  5
194
100
AcDbEntity
  8
Layer_1
 62
7
100
AcDbLine
 10
-20.355334
 20
54.784350
 30
0.0
 11
-23.462221
 21
54.501140
 31
0.0
  0
LINE
  5
195
100
AcDbEntity
  8
Layer_1
 62
7
100
AcDbLine
 10
-23.462221
 20
54.501140
 30
0.0
 11
-27.080237
 21
54.434840
 31
0.0
  0
LINE
  5
196
100
AcDbEntity
  8
Layer_1
 62
7
100
AcDbLine
 10
-27.080237
 20
54.434840
 30
0.0
 11
-31.339696
 21
54.615410
 31
0.0
  0
LINE
  5
197
100
AcDbEntity
  8
Layer_1
 62
7
100
AcDbLine
 10
-31.339696
 20
54.615410
 30
0.0
 11
-34.506301
 21
54.699210
 31
0.0
  0
LINE
  5
198
100
AcDbEntity
  8
Layer_1
 62
7
100
AcDbLine
 10
-34.506301
 20
54.699210
 30
0.0
 11
-37.632690
 21
54.930960
 31
0.0
  0
LINE
  5
199
100
AcDbEntity
  8
Layer_1
 62
7
100
AcDbLine
 10
-37.632690
 20
54.930960
 30
0.0
 11
-43.772065
 21
55.798390
 31
0.0
  0
LINE
  5
19a
100
AcDbEntity
  8
Layer_1
 62
7
100
AcDbLine
 10
-43.772065
 20
55.798390
 30
0.0
 11
-49.772313
 21
57.137960
 31
0.0
  0
LINE
  5
19b
100
AcDbEntity
  8
Layer_1
 62
7
100
AcDbLine
 10
-49.772313
 20
57.137960
 30
0.0
 11
-55.647925
 21
58.870010
 31
0.0
  0
LINE
  5
19c
100
AcDbEntity
  8
Layer_1
 62
7
100
AcDbLine
 10
-55.647925
 20
58.870010
 30
0.0
 11
-61.413393
 21
60.914840
 31
0.0
  0
LINE
  5
19d
100
AcDbEntity
  8
Layer_1
 62
7
100
AcDbLine
 10
-61.413393
 20
60.914840
 30
0.0
 11
-67.083209
 21
63.192770
 31
0.0
  0
LINE
  5
19e
100
AcDbEntity
  8
Layer_1
 62
7
100
AcDbLine
 10
-67.083209
 20
63.192770
 30
0.0
 11
-78.193853
 21
68.129240
 31
0.0
  0
LINE
  5
19f
100
AcDbEntity
  8
Layer_1
 62
7
100
AcDbLine
 10
-78.193853
 20
68.129240
 30
0.0
 11
-89.095791
 21
73.041960
 31
0.0
  0
LINE
  5
1a0
100
AcDbEntity
  8
Layer_1
 62
7
100
AcDbLine
 10
-89.095791
 20
73.041960
 30
0.0
 11
-94.504724
 21
75.290220
 31
0.0
  0
LINE
  5
1a1
100
AcDbEntity
  8
Layer_1
 62
7
100
AcDbLine
 10
-94.504724
 20
75.290220
 30
0.0
 11
-99.904957
 21
77.293500
 31
0.0
  0
LINE
  5
1a2
100
AcDbEntity
  8
Layer_1
 62
7
100
AcDbLine
 10
-99.904957
 20
77.293500
 30
0.0
 11
-105.310980
 21
78.972120
 31
0.0
  0
LINE
  5
1a3
100
AcDbEntity
  8
Layer_1
 62
7
100
AcDbLine
 10
-105.310980
 20
78.972120
 30
0.0
 11
-110.737290
 21
80.246400
 31
0.0
  0
LINE
  5
1a4
100
AcDbEntity
  8
Layer_1
 62
7
100
AcDbLine
 10
-110.737290
 20
80.246400
 30
0.0
 11
-116.198370
 21
81.036660
 31
0.0
  0
LINE
  5
1a5
100
AcDbEntity
  8
Layer_1
 62
7
100
AcDbLine
 10
-116.198370
 20
81.036660
 30
0.0
 11
-118.946480
 21
81.225390
 31
0.0
  0
LINE
  5
1a6
100
AcDbEntity
  8
Layer_1
 62
7
100
AcDbLine
 10
-118.946480
 20
81.225390
 30
0.0
 11
-121.708710
 21
81.263190
 31
0.0
  0
LINE
  5
1a7
100
AcDbEntity
  8
Layer_1
 62
7
100
AcDbLine
 10
-121.708710
 20
81.263190
 30
0.0
 11
-121.708710
 21
81.263190
 31
0.0
  0
ENDSEC
  0
SECTION
  2
OBJECTS
  0
DICTIONARY
  5
C
330
0
100
AcDbDictionary
  3
ACAD_GROUP
350
D
  3
ACAD_MLINESTYLE
350
17
  0
DICTIONARY
  5
D
330
C
100
AcDbDictionary
  0
DICTIONARY
  5
1A
330
C
100
AcDbDictionary
  0
DICTIONARY
  5
17
330
C
100
AcDbDictionary
  3
STANDARD
350
18
  0
DICTIONARY
  5
19
330
C
100
AcDbDictionary
  0
ENDSEC
  0
EOF
