<?xml version="1.0" encoding="UTF-8" standalone="no"?>
<svg
   xmlns:dc="http://purl.org/dc/elements/1.1/"
   xmlns:cc="http://creativecommons.org/ns#"
   xmlns:rdf="http://www.w3.org/1999/02/22-rdf-syntax-ns#"
   xmlns:svg="http://www.w3.org/2000/svg"
   xmlns="http://www.w3.org/2000/svg"
   xmlns:sodipodi="http://sodipodi.sourceforge.net/DTD/sodipodi-0.dtd"
   xmlns:inkscape="http://www.inkscape.org/namespaces/inkscape"
   inkscape:version="1.0.2 (e86c870879, 2021-01-15, custom)"
   width="210mm"
   height="297mm"
   viewBox="0 0 210 297"
   version="1.1"
   sodipodi:docname="soundHole.svg"
   id="svg937">
  <defs
     id="defs931" />
  <sodipodi:namedview
     inkscape:window-maximized="0"
     inkscape:window-y="0"
     inkscape:window-x="208"
     inkscape:window-height="1008"
     inkscape:window-width="1648"
     showgrid="false"
     inkscape:document-rotation="0"
     inkscape:current-layer="layer1"
     inkscape:document-units="mm"
     inkscape:cy="1035.0797"
     inkscape:cx="2.0613228"
     inkscape:zoom="1.1159029"
     inkscape:pageshadow="2"
     inkscape:pageopacity="0.0"
     borderopacity="1.0"
     bordercolor="#666666"
     pagecolor="#ffffff"
     id="base"
     showguides="true"
     inkscape:guide-bbox="true">
    <sodipodi:guide
       position="108.83003,0.14770596"
       orientation="0,-1"
       id="guide45" />
    <sodipodi:guide
       position="-118.36567,57.586141"
       orientation="1,0"
       id="guide122" />
  </sodipodi:namedview>
  <metadata
     id="metadata934">
    <rdf:RDF>
      <cc:Work
         rdf:about="">
        <dc:format>image/svg+xml</dc:format>
        <dc:type
           rdf:resource="http://purl.org/dc/dcmitype/StillImage" />
        <dc:title></dc:title>
      </cc:Work>
    </rdf:RDF>
  </metadata>
  <g
     id="layer1"
     inkscape:groupmode="layer"
     inkscape:label="Слой 1">
    <path
       style="fill:#000000;stroke-width:0.122427"
       d="m -36.884482,328.20866 c -1.80373,-4.54114 0.17348,-9.46405 4.62945,-11.52652 0.99256,-0.45941 1.27136,-0.53839 2.11058,-0.59791 1.78104,-0.12633 3.69469,0.50906 5.26307,1.7475 0.64411,0.50861 0.76957,0.66241 1.11435,1.3661 1.1485,2.34408 0.84756,4.10354 -0.94042,5.49807 -1.9124,1.49158 -4.53812,1.74794 -6.1935,0.6047 -0.69327,-0.47879 -1.85434,-1.67407 -1.85051,-1.90504 0.006,-0.35343 -0.24023,0.17737 -1.00919,2.17683 l -0.81752,2.12568 0.56563,0.52982 c 4.94113,4.62835 12.44845,4.91876 22.600911,0.87429 1.9128519,-0.76202 6.9655319,-3.40845 9.0191519,-4.72394 1.873912,-1.20037 2.218332,-1.56243 2.409282,-2.53265 l 0.117203,-0.59552 0.284721,0.17004 c 0.395688,0.2363 1.321479,0.30659 2.093147,0.15892 0.551774,-0.1056 1.658465,-0.63342 7.357564,-3.50913 6.8867531,-3.47499 7.7994081,-3.88453 10.6513131,-4.77969 7.515014,-2.35883 14.392322,-1.77547 18.527742,1.5716 0.61,0.49371 0.95448,0.88388 1.59106,1.80208 1.37666,1.98569 1.70006,3.49753 1.14716,5.36262 -0.58541,1.97472 -1.91084,3.47289 -4.1126,4.64858 -1.09414,0.58424 -1.2255,0.62834 -1.88511,0.63279 -1.31076,0.009 -2.48424,-0.52829 -3.58911,-1.64283 -0.53154,-0.53618 -0.65565,-0.73034 -0.89206,-1.39551 -0.36227,-1.01925 -0.28213,-1.73026 0.28428,-2.5221 0.40865,-0.57131 0.55185,-0.6831 1.48117,-1.15625 2.36862,-1.20597 4.26068,-1.06997 5.31617,0.38212 0.22339,0.30732 0.42464,0.54967 0.44728,0.53853 0.0226,-0.0112 0.29692,-0.78719 0.60956,-1.7246 l 0.56842,-1.70438 -0.38485,-0.55658 c -2.38725,-3.4525 -8.8334,-3.04226 -19.023689,1.21069 -2.38822,0.99673 -8.268552,3.9714 -11.7598951,5.94896 -4.995407,2.82946 -5.884964,3.48189 -6.200042,4.54724 l -0.164114,0.55491 -0.593867,-0.12152 c -1.128704,-0.23098 -1.951515,0.035 -5.662917,1.83017 -4.102286,1.98429 -5.663566,2.61065 -8.6443579,3.46798 -8.579923,2.46774 -16.766193,1.39319 -21.687853,-2.84679 -1.13991,-0.98202 -2.21709,-2.49807 -2.77761,-3.90926 z"
       id="path100" />
    <path
       style="fill:#000000;stroke-width:0.122427"
       d="m -36.784452,265.33406 c -1.80373,4.54114 0.17348,9.46405 4.62945,11.52652 0.99256,0.45941 1.27136,0.53839 2.11058,0.59791 1.78104,0.12633 3.69469,-0.50906 5.26307,-1.7475 0.64411,-0.50861 0.76957,-0.66241 1.11435,-1.3661 1.1485,-2.34408 0.84756,-4.10354 -0.94042,-5.49807 -1.9124,-1.49158 -4.53812,-1.74794 -6.1935,-0.6047 -0.69327,0.47879 -1.85434,1.67407 -1.85051,1.90504 0.006,0.35343 -0.24023,-0.17737 -1.00919,-2.17683 l -0.81752,-2.12568 0.56563,-0.52982 c 4.94113,-4.62835 12.44845,-4.91876 22.600906,-0.87429 1.9128519,0.76202 6.9655319,3.40845 9.0191519,4.72394 1.873912,1.20037 2.218332,1.56243 2.409282,2.53265 l 0.117203,0.59552 0.284721,-0.17004 c 0.395688,-0.2363 1.321479,-0.30659 2.093147,-0.15892 0.551774,0.1056 1.658465,0.63342 7.357564,3.50913 6.8867531,3.47499 7.7994081,3.88453 10.6513131,4.77969 7.515014,2.35883 14.392322,1.77547 18.527742,-1.5716 0.61,-0.49371 0.95448,-0.88388 1.59106,-1.80208 1.37666,-1.98569 1.70006,-3.49753 1.14716,-5.36262 -0.58541,-1.97472 -1.91084,-3.47289 -4.1126,-4.64858 -1.09414,-0.58424 -1.2255,-0.62834 -1.88511,-0.63279 -1.31076,-0.009 -2.48424,0.52829 -3.58911,1.64283 -0.53154,0.53618 -0.65565,0.73034 -0.89206,1.39551 -0.36227,1.01925 -0.28213,1.73026 0.28428,2.5221 0.40865,0.57131 0.55185,0.6831 1.48117,1.15625 2.36862,1.20597 4.26068,1.06997 5.31617,-0.38212 0.22339,-0.30732 0.42464,-0.54967 0.44728,-0.53853 0.0226,0.0112 0.29692,0.78719 0.60956,1.7246 l 0.56842,1.70438 -0.38485,0.55658 c -2.38725,3.4525 -8.8334,3.04226 -19.023689,-1.21069 -2.38822,-0.99673 -8.268552,-3.9714 -11.7598951,-5.94896 -4.995407,-2.82946 -5.884964,-3.48189 -6.200042,-4.54724 l -0.164114,-0.55491 -0.593867,0.12152 c -1.128704,0.23098 -1.951515,-0.035 -5.662917,-1.83017 -4.102286,-1.98429 -5.663566,-2.61065 -8.6443579,-3.46798 -8.579918,-2.46774 -16.766188,-1.39319 -21.687848,2.84679 -1.13991,0.98202 -2.21709,2.49807 -2.77761,3.90926 z"
       id="path100-3" />
  </g>
</svg>
