<?xml version="1.0" encoding="UTF-8" standalone="no"?>
<svg
   xmlns:dc="http://purl.org/dc/elements/1.1/"
   xmlns:cc="http://creativecommons.org/ns#"
   xmlns:rdf="http://www.w3.org/1999/02/22-rdf-syntax-ns#"
   xmlns:svg="http://www.w3.org/2000/svg"
   xmlns="http://www.w3.org/2000/svg"
   xmlns:sodipodi="http://sodipodi.sourceforge.net/DTD/sodipodi-0.dtd"
   xmlns:inkscape="http://www.inkscape.org/namespaces/inkscape"
   inkscape:version="1.0 (4035a4fb49, 2020-05-01)"
   width="210mm"
   height="297mm"
   viewBox="0 0 210 297"
   version="1.1"
   sodipodi:docname="superS.svg"
   id="svg937">
  <defs
     id="defs931" />
  <sodipodi:namedview
     inkscape:window-maximized="0"
     inkscape:window-y="0"
     inkscape:window-x="208"
     inkscape:window-height="1008"
     inkscape:window-width="1648"
     showgrid="false"
     inkscape:document-rotation="0"
     inkscape:current-layer="layer1"
     inkscape:document-units="mm"
     inkscape:cy="1037.1871"
     inkscape:cx="152.28482"
     inkscape:zoom="1"
     inkscape:pageshadow="2"
     inkscape:pageopacity="0.0"
     borderopacity="1.0"
     bordercolor="#666666"
     pagecolor="#ffffff"
     id="base" />
  <metadata
     id="metadata934">
    <rdf:RDF>
      <cc:Work
         rdf:about="">
        <dc:format>image/svg+xml</dc:format>
        <dc:type
           rdf:resource="http://purl.org/dc/dcmitype/StillImage" />
      </cc:Work>
    </rdf:RDF>
  </metadata>
  <g
     id="layer1"
     inkscape:groupmode="layer"
     inkscape:label="Слой 1">
    <path
       sodipodi:nodetypes="csscccccccccsccc"
       inkscape:connector-curvature="0"
       id="path4784-3"
       d="m -121.91083,216.26645 c -35.30214,0.43317 -60.49183,33.24922 -69.33948,81.92824 -9.13305,50.24927 4.97056,77.25019 36.9364,84.78759 31.96574,7.53737 64.502854,-26.5547 88.267879,-27.88278 12.786311,-2.51244 30.139321,6.70028 42.925641,9.21272 44.306278,9.22154 42.780438,-9.51452 42.780438,-9.51452 0,0 -16.869857,0.35727 -13.9884271,-21.07782 1.826647,-10.88733 12.6911371,-15.934 12.6911371,-15.934 0,0 3.41656,-0.44216 12.476041,-0.52116 l 1.51905,-38.45826 c -5.24852,0 -2.193381,-12.85726 2.2913,-18.92142 4.07575,-8.38645 25.97648,-13.2627 25.97648,-13.2627 1.76087,-4.56997 -10.63439,-14.12494 -28.014291,-13.60525 -47.762758,1.42818 -39.493868,11.5722 -64.153158,9.89721 -33.998051,-0.0699 -60.823356,-27.0843 -90.36901,-26.64776 z"
       style="fill:#ffffff;stroke:#000000;stroke-width:0.913995px;stroke-linecap:butt;stroke-linejoin:miter;stroke-opacity:1" />
  </g>
</svg>
