<?xml version="1.0" encoding="UTF-8" standalone="no"?>
<svg
   xmlns:dc="http://purl.org/dc/elements/1.1/"
   xmlns:cc="http://creativecommons.org/ns#"
   xmlns:rdf="http://www.w3.org/1999/02/22-rdf-syntax-ns#"
   xmlns:svg="http://www.w3.org/2000/svg"
   xmlns="http://www.w3.org/2000/svg"
   xmlns:sodipodi="http://sodipodi.sourceforge.net/DTD/sodipodi-0.dtd"
   xmlns:inkscape="http://www.inkscape.org/namespaces/inkscape"
   sodipodi:docname="superS.svg"
   inkscape:version="1.0 (4035a4fb49, 2020-05-01)"
   width="210mm"
   height="297mm"
   viewBox="0 0 210 297"
   version="1.1"
   id="svg937">
  <defs
     id="defs931" />
  <sodipodi:namedview
     inkscape:window-maximized="0"
     inkscape:window-y="0"
     inkscape:window-x="208"
     inkscape:window-height="1040"
     inkscape:window-width="1648"
     showgrid="false"
     inkscape:document-rotation="0"
     inkscape:current-layer="layer1"
     inkscape:document-units="mm"
     inkscape:cy="1140.1804"
     inkscape:cx="143.66945"
     inkscape:zoom="1.979899"
     inkscape:pageshadow="2"
     inkscape:pageopacity="0.0"
     borderopacity="1.0"
     bordercolor="#666666"
     pagecolor="#ffffff"
     id="base" />
  <metadata
     id="metadata934">
    <rdf:RDF>
      <cc:Work
         rdf:about="">
        <dc:format>image/svg+xml</dc:format>
        <dc:type
           rdf:resource="http://purl.org/dc/dcmitype/StillImage" />
        <dc:title></dc:title>
      </cc:Work>
    </rdf:RDF>
  </metadata>
  <g
     id="layer1"
     inkscape:groupmode="layer"
     inkscape:label="Слой 1">
    <path
       sodipodi:nodetypes="csscccccccccsccc"
       inkscape:connector-curvature="0"
       id="path4784-3"
       d="m -125.62614,214.29542 -3.28,0.135 -3.219,0.3217 -3.158,0.5054 -3.095,0.686 -3.032,0.8637 -2.966,1.0383 -2.9,1.2099 -2.834,1.3785 -2.764,1.5441 -2.695,1.7065 -2.625,1.8661 -2.553,2.0225 -2.479,2.1759 -2.406,2.3264 -2.33,2.4738 -2.255,2.6181 -4.274,5.6573 -3.955,6.1985 -3.628,6.7154 -3.289,7.2083 -2.944,7.6768 -2.587,8.1212 -2.223,8.5414 -1.849,8.93743 -1.441,9.15022 -0.905,8.61085 -0.376,8.0771 0.145,7.5489 0.659,7.0261 1.163,6.5089 0.769,3.0623 0.892,2.9351 1.014,2.8085 1.136,2.6828 1.257,2.5576 1.375,2.4331 1.494,2.3094 1.612,2.1864 1.728,2.064 1.844,1.9423 1.958,1.8213 2.071,1.7011 2.184,1.5815 2.296,1.4626 2.406,1.3444 2.516,1.2268 5.357,2.104 5.783,1.6423 2.998,0.587 3,0.3566 2.999,0.14 2.998,-0.0631 2.995,-0.2526 2.989,-0.4283 2.982,-0.5906 2.974,-0.7391 5.915,-1.8694 5.859,-2.3003 5.791,-2.6221 5.709,-2.8349 11.114998,-5.8727 5.379,-2.8197 5.242,-2.5967 5.091,-2.2646 4.927,-1.8237 4.748,-1.2738 2.303,-0.3965 2.253,-0.2183 2.449,-0.3381 2.543,-0.0904 2.622,0.1305 2.69,0.3243 5.526,1.1221 5.633,1.5737 11.16,3.6379 5.312,1.6325 4.991,1.2203 7.782,1.4128 6.777,0.8259 5.8420002,0.3075 4.9753,-0.1425 4.1788,-0.5243 3.4515,-0.8375 2.7936,-1.0823 2.2049998,-1.2588 1.6857,-1.3669 1.236,-1.4065 0.8554,-1.3779 0.5444,-1.2806 0.4329,-1.9964 0.0209,-0.7871 -0.7192,-0.0265 -1.8717,-0.2526 -2.5948,-0.7382 -1.4345998,-0.6323 -1.4544,-0.8511 -1.4207,-1.1023 -1.3332,-1.3859 -1.1922,-1.702 -0.9975,-2.0505 -0.7491,-2.4316 -0.4472,-2.8449 -0.0915,-3.2908 0.3177,-3.7691 0.4436,-1.9672 0.6262,-1.8206 0.7797,-1.6767 0.9041,-1.5356 2.0647,-2.6585 2.2123,-2.1265 2.1265998,-1.6162 1.8078,-1.1275 1.7261,-0.876 18.826098,0.008 1.519,-39.5166 -0.9597,-0.1459 -0.9055,-0.4184 -0.8426,-0.6622 -0.7712,-0.8772 -0.6913,-1.0634 -0.6028,-1.2208 -0.9062,-2.7988 -0.449898,-3.083 0.0747,-3.1369 0.255298,-1.5168 0.4121,-1.4439 0.5773,-1.3423 0.7511,-1.2118 0.9634,-1.531 1.323,-1.4467 1.6244,-1.3605 1.8675,-1.2722 4.232,-2.2715 4.5064,-1.8944 4.3154,-1.5013 3.6587,-1.0922 3.4857,-0.8929 0.1665,-0.9116 -0.1518,-1.0064 -0.4568,-1.0791 -0.7482,-1.1298 -1.0263,-1.1583 -1.2909,-1.1649 -1.542,-1.1494 -1.7798,-1.1118 -2.0041,-1.0521 -2.215,-0.9704 -2.4125,-0.8667 -2.5964,-0.7408 -2.767,-0.593 -2.9241,-0.423 -3.0678,-0.231 -3.198098,-0.017 -8.3206,0.3649 -7.1377,0.5391 -6.0849998,0.6833 -5.1628,0.7972 -4.3708,0.8812 -3.7089,0.9351 -5.9550002,1.9115 -4.871,1.766 -2.355,0.7533 -2.476,0.6267 -2.726,0.4699 -3.107,0.2833 -3.618,0.0663 -4.259,-0.1806 -3.167,-0.0838 -3.126,-0.2317 -6.14,-0.8675 -6,-1.3395 -5.876,-1.7321 -5.765,-2.0448 -5.67,-2.2779 -11.11,-4.9365 -10.902,-4.9127 -5.409,-2.2482 -5.400998,-2.0033 -5.406,-1.6786 -5.426,-1.2743 -5.461,-0.7903 -2.748,-0.1887 -2.762,-0.0378 v -1e-4"
       style="fill:#ffffff;stroke:#000000;stroke-width:0.913995px;stroke-linecap:butt;stroke-linejoin:miter;stroke-opacity:1" />
  </g>
</svg>
