<?xml version="1.0" encoding="UTF-8" standalone="no"?>
<svg
   xmlns:dc="http://purl.org/dc/elements/1.1/"
   xmlns:cc="http://creativecommons.org/ns#"
   xmlns:rdf="http://www.w3.org/1999/02/22-rdf-syntax-ns#"
   xmlns:svg="http://www.w3.org/2000/svg"
   xmlns="http://www.w3.org/2000/svg"
   xmlns:sodipodi="http://sodipodi.sourceforge.net/DTD/sodipodi-0.dtd"
   xmlns:inkscape="http://www.inkscape.org/namespaces/inkscape"
   inkscape:version="1.0.2 (e86c870879, 2021-01-15, custom)"
   width="210mm"
   height="297mm"
   viewBox="0 0 210 297"
   version="1.1"
   sodipodi:docname="violin.svg"
   id="svg937">
  <defs
     id="defs931">
    <inkscape:path-effect
       center_point="-401.98682,297.00043"
       end_point="-211.34173,297.00021"
       start_point="-592.63191,297.00064"
       effect="mirror_symmetry"
       id="path-effect835"
       is_visible="true"
       lpeversion="1"
       mode="free"
       discard_orig_path="false"
       fuse_paths="true"
       oposite_fuse="false"
       split_items="false" />
  </defs>
  <sodipodi:namedview
     inkscape:window-maximized="0"
     inkscape:window-y="0"
     inkscape:window-x="208"
     inkscape:window-height="1008"
     inkscape:window-width="1647"
     showgrid="false"
     inkscape:document-rotation="0"
     inkscape:current-layer="layer1"
     inkscape:document-units="mm"
     inkscape:cy="991.03765"
     inkscape:cx="-416.17479"
     inkscape:zoom="0.70710678"
     inkscape:pageshadow="2"
     inkscape:pageopacity="0.0"
     borderopacity="1.0"
     bordercolor="#666666"
     pagecolor="#ffffff"
     id="base"
     showguides="true"
     inkscape:guide-bbox="true"
     inkscape:snap-global="true">
    <sodipodi:guide
       position="67.403917,-0.00042726799"
       orientation="0,-1"
       id="guide45" />
    <sodipodi:guide
       position="-118.36567,57.586141"
       orientation="1,0"
       id="guide122" />
  </sodipodi:namedview>
  <metadata
     id="metadata934">
    <rdf:RDF>
      <cc:Work
         rdf:about="">
        <dc:format>image/svg+xml</dc:format>
        <dc:type
           rdf:resource="http://purl.org/dc/dcmitype/StillImage" />
        <dc:title></dc:title>
      </cc:Work>
    </rdf:RDF>
  </metadata>
  <g
     id="layer1"
     inkscape:groupmode="layer"
     inkscape:label="Слой 1">
    <path
       id="path47"
       style="fill:#ff0000;stroke:none;stroke-width:0.383598px;stroke-linecap:butt;stroke-linejoin:miter;stroke-opacity:1"
       d="m -162.31045,246.40632 c -10.21116,17.96132 -7.92177,50.58266 -7.92097,50.59411 -8e-4,0.0109 -2.29011,32.63226 7.92108,50.59356 12.2741,20.10252 32.12444,29.82945 55.8849,29.639 26.202891,-0.21002 26.676223,-9.47368 30.81406,-7.289 4.137835,2.18471 5.840954,3.88403 5.840954,3.88403 l 2.677928,-1.94181 c 0,0 -9.249426,-20.39068 22.149324,-23.78922 31.398755,-3.39847 33.345739,15.53568 33.345739,15.53568 l 3.8942909,0.97154 c 0,0 3.4078969,-5.34054 9.4929308,-3.88407 6.0850453,1.45645 21.4720413,4.2259 42.7281603,-16.32518 18.104588,-17.50413 16.118004,-47.37295 16.116497,-47.39454 0.0015,-0.0226 1.988024,-29.89145 -16.116604,-47.39554 C 23.261675,229.05385 7.874685,231.82334 1.789643,233.2798 c -6.0850306,1.45648 -9.4929396,-3.88405 -9.4929396,-3.88405 l -3.8942884,0.97155 c 0,0 -1.946942,18.93415 -33.345704,15.53575 -31.398758,-3.39846 -22.149378,-23.78917 -22.149378,-23.78917 l -2.677932,-1.9418 c 0,0 -1.703115,1.69932 -5.840946,3.88404 -4.137832,2.18469 -4.611184,-7.07897 -30.814075,-7.28893 -23.76046,-0.19039 -43.61078,9.53658 -55.88483,29.63913 z"
       sodipodi:nodetypes="cccsscccccscc"
       inkscape:original-d="m -162.31045,246.40632 c -10.21295,17.96447 -7.92097,50.59411 -7.92097,50.59411 H 60.634443 c 0,0 1.994885,-29.88483 -16.116603,-47.39555 C 23.261675,229.05385 7.874685,231.82334 1.789643,233.2798 c -6.0850306,1.45648 -9.4929396,-3.88405 -9.4929396,-3.88405 l -3.8942884,0.97155 c 0,0 -1.946942,18.93415 -33.345704,15.53575 -31.398758,-3.39846 -22.149378,-23.78917 -22.149378,-23.78917 l -2.677932,-1.9418 c 0,0 -1.703115,1.69932 -5.840946,3.88404 -4.137832,2.18469 -4.611184,-7.07897 -30.814075,-7.28893 -23.76046,-0.19039 -43.61078,9.53658 -55.88483,29.63913 z"
       inkscape:path-effect="#path-effect835" />
  </g>
</svg>
